<svg width="100" height="100" viewBox="0 0 100 100" fill="none" xmlns="http://www.w3.org/2000/svg">
<g clip-path="url(#clip0_539_44)">
<path d="M42.9706 46.5255L42.9707 46.5256C44.6712 48.4387 44.6712 51.5612 42.9707 53.4743L42.9707 53.4744L12.9754 87.2243C11.3206 89.086 8.67941 89.0859 7.02497 87.2243C5.325 85.3112 5.32501 82.1886 7.02501 80.2755L6.4647 79.7776L7.02504 80.2754L33.4825 50.4981L33.9252 49.9999L33.4825 49.5018L7.02501 19.7297C7.025 19.7297 7.025 19.7297 7.02499 19.7297C5.32508 17.8167 5.325 14.6837 7.02477 12.7705C8.67924 10.9104 11.3207 10.9104 12.9756 12.7706L42.9706 46.5255ZM90 78.8749C92.2708 78.8749 94.25 80.9673 94.25 83.7499C94.25 86.5325 92.2708 88.6249 90 88.6249H45C42.7292 88.6249 40.75 86.5325 40.75 83.7499C40.75 80.9673 42.7292 78.8749 45 78.8749H90Z" fill="#3294F8" stroke="#3294F8" stroke-width="1.5"/>
</g>
<defs>
<clipPath id="clip0_539_44">
<rect width="90" height="90" fill="white" transform="translate(5 5)"/>
</clipPath>
</defs>
</svg>

